<mxfile host="app.diagrams.net" agent="Mozilla/5.0 (Windows NT 10.0; Win64; x64) AppleWebKit/537.36 (KHTML, like Gecko) Chrome/131.0.0.0 Safari/537.36" version="25.0.1">
  <diagram name="Page-1" id="O_C7XiOJB5yRLb8RxhqW">
    <mxGraphModel dx="2588" dy="1413" grid="1" gridSize="10" guides="1" tooltips="1" connect="1" arrows="1" fold="1" page="1" pageScale="1" pageWidth="850" pageHeight="1100" math="0" shadow="0">
      <root>
        <mxCell id="0" />
        <mxCell id="1" parent="0" />
        <mxCell id="NUtVhF5h9HZDoagzUMLB-1" value="Epoch" style="swimlane;fontStyle=0;align=center;verticalAlign=top;childLayout=stackLayout;horizontal=1;startSize=26;horizontalStack=0;resizeParent=1;resizeLast=0;collapsible=1;marginBottom=0;rounded=0;shadow=0;strokeWidth=1;" parent="1" vertex="1">
          <mxGeometry x="24" y="350" width="160" height="110" as="geometry">
            <mxRectangle x="130" y="380" width="160" height="26" as="alternateBounds" />
          </mxGeometry>
        </mxCell>
        <mxCell id="NUtVhF5h9HZDoagzUMLB-2" value="epoch_ID {PK}" style="text;align=left;verticalAlign=top;spacingLeft=4;spacingRight=4;overflow=hidden;rotatable=0;points=[[0,0.5],[1,0.5]];portConstraint=eastwest;" parent="NUtVhF5h9HZDoagzUMLB-1" vertex="1">
          <mxGeometry y="26" width="160" height="26" as="geometry" />
        </mxCell>
        <mxCell id="NUtVhF5h9HZDoagzUMLB-3" value="epoch_name" style="text;align=left;verticalAlign=top;spacingLeft=4;spacingRight=4;overflow=hidden;rotatable=0;points=[[0,0.5],[1,0.5]];portConstraint=eastwest;" parent="NUtVhF5h9HZDoagzUMLB-1" vertex="1">
          <mxGeometry y="52" width="160" height="26" as="geometry" />
        </mxCell>
        <mxCell id="NUtVhF5h9HZDoagzUMLB-4" value="description" style="text;align=left;verticalAlign=top;spacingLeft=4;spacingRight=4;overflow=hidden;rotatable=0;points=[[0,0.5],[1,0.5]];portConstraint=eastwest;" parent="NUtVhF5h9HZDoagzUMLB-1" vertex="1">
          <mxGeometry y="78" width="160" height="26" as="geometry" />
        </mxCell>
        <mxCell id="NUtVhF5h9HZDoagzUMLB-9" value="Museum" style="swimlane;fontStyle=0;align=center;verticalAlign=top;childLayout=stackLayout;horizontal=1;startSize=26;horizontalStack=0;resizeParent=1;resizeLast=0;collapsible=1;marginBottom=0;rounded=0;shadow=0;strokeWidth=1;" parent="1" vertex="1">
          <mxGeometry x="90" y="619" width="160" height="216" as="geometry">
            <mxRectangle x="130" y="380" width="160" height="26" as="alternateBounds" />
          </mxGeometry>
        </mxCell>
        <mxCell id="NUtVhF5h9HZDoagzUMLB-10" value="museum_ID {PK}" style="text;align=left;verticalAlign=top;spacingLeft=4;spacingRight=4;overflow=hidden;rotatable=0;points=[[0,0.5],[1,0.5]];portConstraint=eastwest;" parent="NUtVhF5h9HZDoagzUMLB-9" vertex="1">
          <mxGeometry y="26" width="160" height="26" as="geometry" />
        </mxCell>
        <mxCell id="NUtVhF5h9HZDoagzUMLB-11" value="museum_name" style="text;align=left;verticalAlign=top;spacingLeft=4;spacingRight=4;overflow=hidden;rotatable=0;points=[[0,0.5],[1,0.5]];portConstraint=eastwest;" parent="NUtVhF5h9HZDoagzUMLB-9" vertex="1">
          <mxGeometry y="52" width="160" height="26" as="geometry" />
        </mxCell>
        <mxCell id="NUtVhF5h9HZDoagzUMLB-12" value="description" style="text;align=left;verticalAlign=top;spacingLeft=4;spacingRight=4;overflow=hidden;rotatable=0;points=[[0,0.5],[1,0.5]];portConstraint=eastwest;" parent="NUtVhF5h9HZDoagzUMLB-9" vertex="1">
          <mxGeometry y="78" width="160" height="26" as="geometry" />
        </mxCell>
        <mxCell id="NUtVhF5h9HZDoagzUMLB-13" value="address" style="text;align=left;verticalAlign=top;spacingLeft=4;spacingRight=4;overflow=hidden;rotatable=0;points=[[0,0.5],[1,0.5]];portConstraint=eastwest;" parent="NUtVhF5h9HZDoagzUMLB-9" vertex="1">
          <mxGeometry y="104" width="160" height="26" as="geometry" />
        </mxCell>
        <mxCell id="NUtVhF5h9HZDoagzUMLB-14" value="phone" style="text;align=left;verticalAlign=top;spacingLeft=4;spacingRight=4;overflow=hidden;rotatable=0;points=[[0,0.5],[1,0.5]];portConstraint=eastwest;" parent="NUtVhF5h9HZDoagzUMLB-9" vertex="1">
          <mxGeometry y="130" width="160" height="26" as="geometry" />
        </mxCell>
        <mxCell id="NUtVhF5h9HZDoagzUMLB-15" value="contactname" style="text;align=left;verticalAlign=top;spacingLeft=4;spacingRight=4;overflow=hidden;rotatable=0;points=[[0,0.5],[1,0.5]];portConstraint=eastwest;" parent="NUtVhF5h9HZDoagzUMLB-9" vertex="1">
          <mxGeometry y="156" width="160" height="26" as="geometry" />
        </mxCell>
        <mxCell id="NUtVhF5h9HZDoagzUMLB-206" value="artobject_ID {FK}" style="text;align=left;verticalAlign=top;spacingLeft=4;spacingRight=4;overflow=hidden;rotatable=0;points=[[0,0.5],[1,0.5]];portConstraint=eastwest;" parent="NUtVhF5h9HZDoagzUMLB-9" vertex="1">
          <mxGeometry y="182" width="160" height="26" as="geometry" />
        </mxCell>
        <mxCell id="NUtVhF5h9HZDoagzUMLB-16" value="ArtObject" style="swimlane;fontStyle=0;align=center;verticalAlign=top;childLayout=stackLayout;horizontal=1;startSize=26;horizontalStack=0;resizeParent=1;resizeLast=0;collapsible=1;marginBottom=0;rounded=0;shadow=0;strokeWidth=1;" parent="1" vertex="1">
          <mxGeometry x="500" y="320" width="200" height="390" as="geometry">
            <mxRectangle x="130" y="380" width="160" height="26" as="alternateBounds" />
          </mxGeometry>
        </mxCell>
        <mxCell id="NUtVhF5h9HZDoagzUMLB-17" value="artobject_ID {PK}" style="text;align=left;verticalAlign=top;spacingLeft=4;spacingRight=4;overflow=hidden;rotatable=0;points=[[0,0.5],[1,0.5]];portConstraint=eastwest;" parent="NUtVhF5h9HZDoagzUMLB-16" vertex="1">
          <mxGeometry y="26" width="200" height="26" as="geometry" />
        </mxCell>
        <mxCell id="NUtVhF5h9HZDoagzUMLB-18" value="artist_ID {FK}" style="text;align=left;verticalAlign=top;spacingLeft=4;spacingRight=4;overflow=hidden;rotatable=0;points=[[0,0.5],[1,0.5]];portConstraint=eastwest;" parent="NUtVhF5h9HZDoagzUMLB-16" vertex="1">
          <mxGeometry y="52" width="200" height="26" as="geometry" />
        </mxCell>
        <mxCell id="NUtVhF5h9HZDoagzUMLB-19" value="year_creation" style="text;align=left;verticalAlign=top;spacingLeft=4;spacingRight=4;overflow=hidden;rotatable=0;points=[[0,0.5],[1,0.5]];portConstraint=eastwest;" parent="NUtVhF5h9HZDoagzUMLB-16" vertex="1">
          <mxGeometry y="78" width="200" height="26" as="geometry" />
        </mxCell>
        <mxCell id="NUtVhF5h9HZDoagzUMLB-20" value="title" style="text;align=left;verticalAlign=top;spacingLeft=4;spacingRight=4;overflow=hidden;rotatable=0;points=[[0,0.5],[1,0.5]];portConstraint=eastwest;" parent="NUtVhF5h9HZDoagzUMLB-16" vertex="1">
          <mxGeometry y="104" width="200" height="26" as="geometry" />
        </mxCell>
        <mxCell id="NUtVhF5h9HZDoagzUMLB-21" value="description" style="text;align=left;verticalAlign=top;spacingLeft=4;spacingRight=4;overflow=hidden;rotatable=0;points=[[0,0.5],[1,0.5]];portConstraint=eastwest;" parent="NUtVhF5h9HZDoagzUMLB-16" vertex="1">
          <mxGeometry y="130" width="200" height="26" as="geometry" />
        </mxCell>
        <mxCell id="NUtVhF5h9HZDoagzUMLB-22" value="countrycultureorigin_ID {FK}" style="text;align=left;verticalAlign=top;spacingLeft=4;spacingRight=4;overflow=hidden;rotatable=0;points=[[0,0.5],[1,0.5]];portConstraint=eastwest;" parent="NUtVhF5h9HZDoagzUMLB-16" vertex="1">
          <mxGeometry y="156" width="200" height="26" as="geometry" />
        </mxCell>
        <mxCell id="NUtVhF5h9HZDoagzUMLB-23" value="epoch_ID {FK}" style="text;align=left;verticalAlign=top;spacingLeft=4;spacingRight=4;overflow=hidden;rotatable=0;points=[[0,0.5],[1,0.5]];portConstraint=eastwest;" parent="NUtVhF5h9HZDoagzUMLB-16" vertex="1">
          <mxGeometry y="182" width="200" height="26" as="geometry" />
        </mxCell>
        <mxCell id="NUtVhF5h9HZDoagzUMLB-24" value="category" style="text;align=left;verticalAlign=top;spacingLeft=4;spacingRight=4;overflow=hidden;rotatable=0;points=[[0,0.5],[1,0.5]];portConstraint=eastwest;" parent="NUtVhF5h9HZDoagzUMLB-16" vertex="1">
          <mxGeometry y="208" width="200" height="26" as="geometry" />
        </mxCell>
        <mxCell id="NUtVhF5h9HZDoagzUMLB-25" value="date_acquired" style="text;align=left;verticalAlign=top;spacingLeft=4;spacingRight=4;overflow=hidden;rotatable=0;points=[[0,0.5],[1,0.5]];portConstraint=eastwest;" parent="NUtVhF5h9HZDoagzUMLB-16" vertex="1">
          <mxGeometry y="234" width="200" height="26" as="geometry" />
        </mxCell>
        <mxCell id="NUtVhF5h9HZDoagzUMLB-26" value="status" style="text;align=left;verticalAlign=top;spacingLeft=4;spacingRight=4;overflow=hidden;rotatable=0;points=[[0,0.5],[1,0.5]];portConstraint=eastwest;" parent="NUtVhF5h9HZDoagzUMLB-16" vertex="1">
          <mxGeometry y="260" width="200" height="26" as="geometry" />
        </mxCell>
        <mxCell id="NUtVhF5h9HZDoagzUMLB-27" value="cost" style="text;align=left;verticalAlign=top;spacingLeft=4;spacingRight=4;overflow=hidden;rotatable=0;points=[[0,0.5],[1,0.5]];portConstraint=eastwest;" parent="NUtVhF5h9HZDoagzUMLB-16" vertex="1">
          <mxGeometry y="286" width="200" height="26" as="geometry" />
        </mxCell>
        <mxCell id="NUtVhF5h9HZDoagzUMLB-28" value="museum_ID {FK}" style="text;align=left;verticalAlign=top;spacingLeft=4;spacingRight=4;overflow=hidden;rotatable=0;points=[[0,0.5],[1,0.5]];portConstraint=eastwest;" parent="NUtVhF5h9HZDoagzUMLB-16" vertex="1">
          <mxGeometry y="312" width="200" height="26" as="geometry" />
        </mxCell>
        <mxCell id="NUtVhF5h9HZDoagzUMLB-208" value="artcollection (permanent/temporary)" style="text;align=left;verticalAlign=top;spacingLeft=4;spacingRight=4;overflow=hidden;rotatable=0;points=[[0,0.5],[1,0.5]];portConstraint=eastwest;" parent="NUtVhF5h9HZDoagzUMLB-16" vertex="1">
          <mxGeometry y="338" width="200" height="26" as="geometry" />
        </mxCell>
        <mxCell id="NUtVhF5h9HZDoagzUMLB-211" value="afc_ID {FK}" style="text;align=left;verticalAlign=top;spacingLeft=4;spacingRight=4;overflow=hidden;rotatable=0;points=[[0,0.5],[1,0.5]];portConstraint=eastwest;" parent="NUtVhF5h9HZDoagzUMLB-16" vertex="1">
          <mxGeometry y="364" width="200" height="26" as="geometry" />
        </mxCell>
        <mxCell id="NUtVhF5h9HZDoagzUMLB-31" value="Artist" style="swimlane;fontStyle=0;align=center;verticalAlign=top;childLayout=stackLayout;horizontal=1;startSize=26;horizontalStack=0;resizeParent=1;resizeLast=0;collapsible=1;marginBottom=0;rounded=0;shadow=0;strokeWidth=1;" parent="1" vertex="1">
          <mxGeometry x="130" y="80" width="168" height="234" as="geometry">
            <mxRectangle x="130" y="380" width="160" height="26" as="alternateBounds" />
          </mxGeometry>
        </mxCell>
        <mxCell id="NUtVhF5h9HZDoagzUMLB-32" value="artist_ID {PK}" style="text;align=left;verticalAlign=top;spacingLeft=4;spacingRight=4;overflow=hidden;rotatable=0;points=[[0,0.5],[1,0.5]];portConstraint=eastwest;" parent="NUtVhF5h9HZDoagzUMLB-31" vertex="1">
          <mxGeometry y="26" width="168" height="26" as="geometry" />
        </mxCell>
        <mxCell id="NUtVhF5h9HZDoagzUMLB-33" value="artist_name" style="text;align=left;verticalAlign=top;spacingLeft=4;spacingRight=4;overflow=hidden;rotatable=0;points=[[0,0.5],[1,0.5]];portConstraint=eastwest;" parent="NUtVhF5h9HZDoagzUMLB-31" vertex="1">
          <mxGeometry y="52" width="168" height="26" as="geometry" />
        </mxCell>
        <mxCell id="NUtVhF5h9HZDoagzUMLB-34" value="date_born" style="text;align=left;verticalAlign=top;spacingLeft=4;spacingRight=4;overflow=hidden;rotatable=0;points=[[0,0.5],[1,0.5]];portConstraint=eastwest;" parent="NUtVhF5h9HZDoagzUMLB-31" vertex="1">
          <mxGeometry y="78" width="168" height="26" as="geometry" />
        </mxCell>
        <mxCell id="NUtVhF5h9HZDoagzUMLB-35" value="date_died" style="text;align=left;verticalAlign=top;spacingLeft=4;spacingRight=4;overflow=hidden;rotatable=0;points=[[0,0.5],[1,0.5]];portConstraint=eastwest;" parent="NUtVhF5h9HZDoagzUMLB-31" vertex="1">
          <mxGeometry y="104" width="168" height="26" as="geometry" />
        </mxCell>
        <mxCell id="NUtVhF5h9HZDoagzUMLB-36" value="countrycultureorigin_ID {FK}" style="text;align=left;verticalAlign=top;spacingLeft=4;spacingRight=4;overflow=hidden;rotatable=0;points=[[0,0.5],[1,0.5]];portConstraint=eastwest;" parent="NUtVhF5h9HZDoagzUMLB-31" vertex="1">
          <mxGeometry y="130" width="168" height="26" as="geometry" />
        </mxCell>
        <mxCell id="NUtVhF5h9HZDoagzUMLB-37" value="epoch_ID {FK}" style="text;align=left;verticalAlign=top;spacingLeft=4;spacingRight=4;overflow=hidden;rotatable=0;points=[[0,0.5],[1,0.5]];portConstraint=eastwest;" parent="NUtVhF5h9HZDoagzUMLB-31" vertex="1">
          <mxGeometry y="156" width="168" height="26" as="geometry" />
        </mxCell>
        <mxCell id="NUtVhF5h9HZDoagzUMLB-38" value="main_style" style="text;align=left;verticalAlign=top;spacingLeft=4;spacingRight=4;overflow=hidden;rotatable=0;points=[[0,0.5],[1,0.5]];portConstraint=eastwest;" parent="NUtVhF5h9HZDoagzUMLB-31" vertex="1">
          <mxGeometry y="182" width="168" height="26" as="geometry" />
        </mxCell>
        <mxCell id="NUtVhF5h9HZDoagzUMLB-39" value="description" style="text;align=left;verticalAlign=top;spacingLeft=4;spacingRight=4;overflow=hidden;rotatable=0;points=[[0,0.5],[1,0.5]];portConstraint=eastwest;" parent="NUtVhF5h9HZDoagzUMLB-31" vertex="1">
          <mxGeometry y="208" width="168" height="26" as="geometry" />
        </mxCell>
        <mxCell id="NUtVhF5h9HZDoagzUMLB-40" value="Painting" style="swimlane;fontStyle=0;align=center;verticalAlign=top;childLayout=stackLayout;horizontal=1;startSize=26;horizontalStack=0;resizeParent=1;resizeLast=0;collapsible=1;marginBottom=0;rounded=0;shadow=0;strokeWidth=1;" parent="1" vertex="1">
          <mxGeometry x="519.5" y="800" width="160" height="130" as="geometry">
            <mxRectangle x="130" y="380" width="160" height="26" as="alternateBounds" />
          </mxGeometry>
        </mxCell>
        <mxCell id="NUtVhF5h9HZDoagzUMLB-41" value="artobject_ID {FK}" style="text;align=left;verticalAlign=top;spacingLeft=4;spacingRight=4;overflow=hidden;rotatable=0;points=[[0,0.5],[1,0.5]];portConstraint=eastwest;" parent="NUtVhF5h9HZDoagzUMLB-40" vertex="1">
          <mxGeometry y="26" width="160" height="26" as="geometry" />
        </mxCell>
        <mxCell id="NUtVhF5h9HZDoagzUMLB-42" value="types" style="text;align=left;verticalAlign=top;spacingLeft=4;spacingRight=4;overflow=hidden;rotatable=0;points=[[0,0.5],[1,0.5]];portConstraint=eastwest;" parent="NUtVhF5h9HZDoagzUMLB-40" vertex="1">
          <mxGeometry y="52" width="160" height="26" as="geometry" />
        </mxCell>
        <mxCell id="NUtVhF5h9HZDoagzUMLB-43" value="material" style="text;align=left;verticalAlign=top;spacingLeft=4;spacingRight=4;overflow=hidden;rotatable=0;points=[[0,0.5],[1,0.5]];portConstraint=eastwest;" parent="NUtVhF5h9HZDoagzUMLB-40" vertex="1">
          <mxGeometry y="78" width="160" height="26" as="geometry" />
        </mxCell>
        <mxCell id="NUtVhF5h9HZDoagzUMLB-44" value="style" style="text;align=left;verticalAlign=top;spacingLeft=4;spacingRight=4;overflow=hidden;rotatable=0;points=[[0,0.5],[1,0.5]];portConstraint=eastwest;" parent="NUtVhF5h9HZDoagzUMLB-40" vertex="1">
          <mxGeometry y="104" width="160" height="26" as="geometry" />
        </mxCell>
        <mxCell id="NUtVhF5h9HZDoagzUMLB-45" value="Sculpture" style="swimlane;fontStyle=0;align=center;verticalAlign=top;childLayout=stackLayout;horizontal=1;startSize=26;horizontalStack=0;resizeParent=1;resizeLast=0;collapsible=1;marginBottom=0;rounded=0;shadow=0;strokeWidth=1;" parent="1" vertex="1">
          <mxGeometry x="743" y="799" width="160" height="160" as="geometry">
            <mxRectangle x="130" y="380" width="160" height="26" as="alternateBounds" />
          </mxGeometry>
        </mxCell>
        <mxCell id="NUtVhF5h9HZDoagzUMLB-46" value="artobject_ID {FK}" style="text;align=left;verticalAlign=top;spacingLeft=4;spacingRight=4;overflow=hidden;rotatable=0;points=[[0,0.5],[1,0.5]];portConstraint=eastwest;" parent="NUtVhF5h9HZDoagzUMLB-45" vertex="1">
          <mxGeometry y="26" width="160" height="26" as="geometry" />
        </mxCell>
        <mxCell id="NUtVhF5h9HZDoagzUMLB-47" value="material" style="text;align=left;verticalAlign=top;spacingLeft=4;spacingRight=4;overflow=hidden;rotatable=0;points=[[0,0.5],[1,0.5]];portConstraint=eastwest;" parent="NUtVhF5h9HZDoagzUMLB-45" vertex="1">
          <mxGeometry y="52" width="160" height="26" as="geometry" />
        </mxCell>
        <mxCell id="NUtVhF5h9HZDoagzUMLB-48" value="height" style="text;align=left;verticalAlign=top;spacingLeft=4;spacingRight=4;overflow=hidden;rotatable=0;points=[[0,0.5],[1,0.5]];portConstraint=eastwest;" parent="NUtVhF5h9HZDoagzUMLB-45" vertex="1">
          <mxGeometry y="78" width="160" height="26" as="geometry" />
        </mxCell>
        <mxCell id="NUtVhF5h9HZDoagzUMLB-49" value="weight" style="text;align=left;verticalAlign=top;spacingLeft=4;spacingRight=4;overflow=hidden;rotatable=0;points=[[0,0.5],[1,0.5]];portConstraint=eastwest;" parent="NUtVhF5h9HZDoagzUMLB-45" vertex="1">
          <mxGeometry y="104" width="160" height="26" as="geometry" />
        </mxCell>
        <mxCell id="NUtVhF5h9HZDoagzUMLB-50" value="style" style="text;align=left;verticalAlign=top;spacingLeft=4;spacingRight=4;overflow=hidden;rotatable=0;points=[[0,0.5],[1,0.5]];portConstraint=eastwest;" parent="NUtVhF5h9HZDoagzUMLB-45" vertex="1">
          <mxGeometry y="130" width="160" height="26" as="geometry" />
        </mxCell>
        <mxCell id="NUtVhF5h9HZDoagzUMLB-51" value="Others" style="swimlane;fontStyle=0;align=center;verticalAlign=top;childLayout=stackLayout;horizontal=1;startSize=26;horizontalStack=0;resizeParent=1;resizeLast=0;collapsible=1;marginBottom=0;rounded=0;shadow=0;strokeWidth=1;" parent="1" vertex="1">
          <mxGeometry x="1170.5" y="799" width="160" height="110" as="geometry">
            <mxRectangle x="130" y="380" width="160" height="26" as="alternateBounds" />
          </mxGeometry>
        </mxCell>
        <mxCell id="NUtVhF5h9HZDoagzUMLB-52" value="artobject_ID {FK}" style="text;align=left;verticalAlign=top;spacingLeft=4;spacingRight=4;overflow=hidden;rotatable=0;points=[[0,0.5],[1,0.5]];portConstraint=eastwest;" parent="NUtVhF5h9HZDoagzUMLB-51" vertex="1">
          <mxGeometry y="26" width="160" height="26" as="geometry" />
        </mxCell>
        <mxCell id="NUtVhF5h9HZDoagzUMLB-53" value="type" style="text;align=left;verticalAlign=top;spacingLeft=4;spacingRight=4;overflow=hidden;rotatable=0;points=[[0,0.5],[1,0.5]];portConstraint=eastwest;" parent="NUtVhF5h9HZDoagzUMLB-51" vertex="1">
          <mxGeometry y="52" width="160" height="26" as="geometry" />
        </mxCell>
        <mxCell id="NUtVhF5h9HZDoagzUMLB-54" value="style" style="text;align=left;verticalAlign=top;spacingLeft=4;spacingRight=4;overflow=hidden;rotatable=0;points=[[0,0.5],[1,0.5]];portConstraint=eastwest;" parent="NUtVhF5h9HZDoagzUMLB-51" vertex="1">
          <mxGeometry y="78" width="160" height="26" as="geometry" />
        </mxCell>
        <mxCell id="NUtVhF5h9HZDoagzUMLB-55" value="Statue" style="swimlane;fontStyle=0;align=center;verticalAlign=top;childLayout=stackLayout;horizontal=1;startSize=26;horizontalStack=0;resizeParent=1;resizeLast=0;collapsible=1;marginBottom=0;rounded=0;shadow=0;strokeWidth=1;" parent="1" vertex="1">
          <mxGeometry x="957" y="799" width="160" height="160" as="geometry">
            <mxRectangle x="130" y="380" width="160" height="26" as="alternateBounds" />
          </mxGeometry>
        </mxCell>
        <mxCell id="NUtVhF5h9HZDoagzUMLB-56" value="artobject_ID {FK}" style="text;align=left;verticalAlign=top;spacingLeft=4;spacingRight=4;overflow=hidden;rotatable=0;points=[[0,0.5],[1,0.5]];portConstraint=eastwest;" parent="NUtVhF5h9HZDoagzUMLB-55" vertex="1">
          <mxGeometry y="26" width="160" height="26" as="geometry" />
        </mxCell>
        <mxCell id="NUtVhF5h9HZDoagzUMLB-57" value="material" style="text;align=left;verticalAlign=top;spacingLeft=4;spacingRight=4;overflow=hidden;rotatable=0;points=[[0,0.5],[1,0.5]];portConstraint=eastwest;" parent="NUtVhF5h9HZDoagzUMLB-55" vertex="1">
          <mxGeometry y="52" width="160" height="26" as="geometry" />
        </mxCell>
        <mxCell id="NUtVhF5h9HZDoagzUMLB-58" value="height" style="text;align=left;verticalAlign=top;spacingLeft=4;spacingRight=4;overflow=hidden;rotatable=0;points=[[0,0.5],[1,0.5]];portConstraint=eastwest;" parent="NUtVhF5h9HZDoagzUMLB-55" vertex="1">
          <mxGeometry y="78" width="160" height="26" as="geometry" />
        </mxCell>
        <mxCell id="NUtVhF5h9HZDoagzUMLB-59" value="weight" style="text;align=left;verticalAlign=top;spacingLeft=4;spacingRight=4;overflow=hidden;rotatable=0;points=[[0,0.5],[1,0.5]];portConstraint=eastwest;" parent="NUtVhF5h9HZDoagzUMLB-55" vertex="1">
          <mxGeometry y="104" width="160" height="26" as="geometry" />
        </mxCell>
        <mxCell id="NUtVhF5h9HZDoagzUMLB-60" value="style" style="text;align=left;verticalAlign=top;spacingLeft=4;spacingRight=4;overflow=hidden;rotatable=0;points=[[0,0.5],[1,0.5]];portConstraint=eastwest;" parent="NUtVhF5h9HZDoagzUMLB-55" vertex="1">
          <mxGeometry y="130" width="160" height="26" as="geometry" />
        </mxCell>
        <mxCell id="NUtVhF5h9HZDoagzUMLB-61" value="Exhibition" style="swimlane;fontStyle=0;align=center;verticalAlign=top;childLayout=stackLayout;horizontal=1;startSize=26;horizontalStack=0;resizeParent=1;resizeLast=0;collapsible=1;marginBottom=0;rounded=0;shadow=0;strokeWidth=1;" parent="1" vertex="1">
          <mxGeometry x="1000" y="320" width="160" height="182" as="geometry">
            <mxRectangle x="130" y="380" width="160" height="26" as="alternateBounds" />
          </mxGeometry>
        </mxCell>
        <mxCell id="NUtVhF5h9HZDoagzUMLB-62" value="exhibition_ID {PK}" style="text;align=left;verticalAlign=top;spacingLeft=4;spacingRight=4;overflow=hidden;rotatable=0;points=[[0,0.5],[1,0.5]];portConstraint=eastwest;" parent="NUtVhF5h9HZDoagzUMLB-61" vertex="1">
          <mxGeometry y="26" width="160" height="26" as="geometry" />
        </mxCell>
        <mxCell id="NUtVhF5h9HZDoagzUMLB-63" value="exhibition_name" style="text;align=left;verticalAlign=top;spacingLeft=4;spacingRight=4;overflow=hidden;rotatable=0;points=[[0,0.5],[1,0.5]];portConstraint=eastwest;" parent="NUtVhF5h9HZDoagzUMLB-61" vertex="1">
          <mxGeometry y="52" width="160" height="26" as="geometry" />
        </mxCell>
        <mxCell id="NUtVhF5h9HZDoagzUMLB-64" value="category" style="text;align=left;verticalAlign=top;spacingLeft=4;spacingRight=4;overflow=hidden;rotatable=0;points=[[0,0.5],[1,0.5]];portConstraint=eastwest;" parent="NUtVhF5h9HZDoagzUMLB-61" vertex="1">
          <mxGeometry y="78" width="160" height="26" as="geometry" />
        </mxCell>
        <mxCell id="NUtVhF5h9HZDoagzUMLB-65" value="type" style="text;align=left;verticalAlign=top;spacingLeft=4;spacingRight=4;overflow=hidden;rotatable=0;points=[[0,0.5],[1,0.5]];portConstraint=eastwest;" parent="NUtVhF5h9HZDoagzUMLB-61" vertex="1">
          <mxGeometry y="104" width="160" height="26" as="geometry" />
        </mxCell>
        <mxCell id="NUtVhF5h9HZDoagzUMLB-66" value="start_period_date" style="text;align=left;verticalAlign=top;spacingLeft=4;spacingRight=4;overflow=hidden;rotatable=0;points=[[0,0.5],[1,0.5]];portConstraint=eastwest;" parent="NUtVhF5h9HZDoagzUMLB-61" vertex="1">
          <mxGeometry y="130" width="160" height="26" as="geometry" />
        </mxCell>
        <mxCell id="NUtVhF5h9HZDoagzUMLB-67" value="end_period_date" style="text;align=left;verticalAlign=top;spacingLeft=4;spacingRight=4;overflow=hidden;rotatable=0;points=[[0,0.5],[1,0.5]];portConstraint=eastwest;" parent="NUtVhF5h9HZDoagzUMLB-61" vertex="1">
          <mxGeometry y="156" width="160" height="26" as="geometry" />
        </mxCell>
        <mxCell id="NUtVhF5h9HZDoagzUMLB-68" value="Mimic" style="swimlane;fontStyle=0;align=center;verticalAlign=top;childLayout=stackLayout;horizontal=1;startSize=26;horizontalStack=0;resizeParent=1;resizeLast=0;collapsible=1;marginBottom=0;rounded=0;shadow=0;strokeWidth=1;" parent="1" vertex="1">
          <mxGeometry x="743" y="120" width="160" height="130" as="geometry">
            <mxRectangle x="130" y="380" width="160" height="26" as="alternateBounds" />
          </mxGeometry>
        </mxCell>
        <mxCell id="NUtVhF5h9HZDoagzUMLB-69" value="mimic_ID {PK}" style="text;align=left;verticalAlign=top;spacingLeft=4;spacingRight=4;overflow=hidden;rotatable=0;points=[[0,0.5],[1,0.5]];portConstraint=eastwest;" parent="NUtVhF5h9HZDoagzUMLB-68" vertex="1">
          <mxGeometry y="26" width="160" height="26" as="geometry" />
        </mxCell>
        <mxCell id="NUtVhF5h9HZDoagzUMLB-70" value="artobject_ID {FK}" style="text;align=left;verticalAlign=top;spacingLeft=4;spacingRight=4;overflow=hidden;rotatable=0;points=[[0,0.5],[1,0.5]];portConstraint=eastwest;" parent="NUtVhF5h9HZDoagzUMLB-68" vertex="1">
          <mxGeometry y="52" width="160" height="26" as="geometry" />
        </mxCell>
        <mxCell id="NUtVhF5h9HZDoagzUMLB-71" value="mimic_name" style="text;align=left;verticalAlign=top;spacingLeft=4;spacingRight=4;overflow=hidden;rotatable=0;points=[[0,0.5],[1,0.5]];portConstraint=eastwest;" parent="NUtVhF5h9HZDoagzUMLB-68" vertex="1">
          <mxGeometry y="78" width="160" height="26" as="geometry" />
        </mxCell>
        <mxCell id="NUtVhF5h9HZDoagzUMLB-72" value="price" style="text;align=left;verticalAlign=top;spacingLeft=4;spacingRight=4;overflow=hidden;rotatable=0;points=[[0,0.5],[1,0.5]];portConstraint=eastwest;" parent="NUtVhF5h9HZDoagzUMLB-68" vertex="1">
          <mxGeometry y="104" width="160" height="26" as="geometry" />
        </mxCell>
        <mxCell id="NUtVhF5h9HZDoagzUMLB-73" value="LoyalVisitor" style="swimlane;fontStyle=0;align=center;verticalAlign=top;childLayout=stackLayout;horizontal=1;startSize=26;horizontalStack=0;resizeParent=1;resizeLast=0;collapsible=1;marginBottom=0;rounded=0;shadow=0;strokeWidth=1;" parent="1" vertex="1">
          <mxGeometry x="1510" y="320" width="160" height="160" as="geometry">
            <mxRectangle x="130" y="380" width="160" height="26" as="alternateBounds" />
          </mxGeometry>
        </mxCell>
        <mxCell id="NUtVhF5h9HZDoagzUMLB-74" value="loyaltymember_No {PK}" style="text;align=left;verticalAlign=top;spacingLeft=4;spacingRight=4;overflow=hidden;rotatable=0;points=[[0,0.5],[1,0.5]];portConstraint=eastwest;" parent="NUtVhF5h9HZDoagzUMLB-73" vertex="1">
          <mxGeometry y="26" width="160" height="26" as="geometry" />
        </mxCell>
        <mxCell id="NUtVhF5h9HZDoagzUMLB-75" value="loyaltymember_fname" style="text;align=left;verticalAlign=top;spacingLeft=4;spacingRight=4;overflow=hidden;rotatable=0;points=[[0,0.5],[1,0.5]];portConstraint=eastwest;" parent="NUtVhF5h9HZDoagzUMLB-73" vertex="1">
          <mxGeometry y="52" width="160" height="26" as="geometry" />
        </mxCell>
        <mxCell id="NUtVhF5h9HZDoagzUMLB-76" value="status" style="text;align=left;verticalAlign=top;spacingLeft=4;spacingRight=4;overflow=hidden;rotatable=0;points=[[0,0.5],[1,0.5]];portConstraint=eastwest;" parent="NUtVhF5h9HZDoagzUMLB-73" vertex="1">
          <mxGeometry y="78" width="160" height="26" as="geometry" />
        </mxCell>
        <mxCell id="NUtVhF5h9HZDoagzUMLB-77" value="preference" style="text;align=left;verticalAlign=top;spacingLeft=4;spacingRight=4;overflow=hidden;rotatable=0;points=[[0,0.5],[1,0.5]];portConstraint=eastwest;" parent="NUtVhF5h9HZDoagzUMLB-73" vertex="1">
          <mxGeometry y="104" width="160" height="26" as="geometry" />
        </mxCell>
        <mxCell id="NUtVhF5h9HZDoagzUMLB-78" value="exhibition_ID {FK}" style="text;align=left;verticalAlign=top;spacingLeft=4;spacingRight=4;overflow=hidden;rotatable=0;points=[[0,0.5],[1,0.5]];portConstraint=eastwest;" parent="NUtVhF5h9HZDoagzUMLB-73" vertex="1">
          <mxGeometry y="130" width="160" height="26" as="geometry" />
        </mxCell>
        <mxCell id="NUtVhF5h9HZDoagzUMLB-79" value="Staff" style="swimlane;fontStyle=0;align=center;verticalAlign=top;childLayout=stackLayout;horizontal=1;startSize=26;horizontalStack=0;resizeParent=1;resizeLast=0;collapsible=1;marginBottom=0;rounded=0;shadow=0;strokeWidth=1;" parent="1" vertex="1">
          <mxGeometry x="1000" y="574" width="160" height="106" as="geometry">
            <mxRectangle x="130" y="380" width="160" height="26" as="alternateBounds" />
          </mxGeometry>
        </mxCell>
        <mxCell id="NUtVhF5h9HZDoagzUMLB-80" value="staff_ID {PK}" style="text;align=left;verticalAlign=top;spacingLeft=4;spacingRight=4;overflow=hidden;rotatable=0;points=[[0,0.5],[1,0.5]];portConstraint=eastwest;" parent="NUtVhF5h9HZDoagzUMLB-79" vertex="1">
          <mxGeometry y="26" width="160" height="26" as="geometry" />
        </mxCell>
        <mxCell id="NUtVhF5h9HZDoagzUMLB-81" value="staff_name" style="text;align=left;verticalAlign=top;spacingLeft=4;spacingRight=4;overflow=hidden;rotatable=0;points=[[0,0.5],[1,0.5]];portConstraint=eastwest;" parent="NUtVhF5h9HZDoagzUMLB-79" vertex="1">
          <mxGeometry y="52" width="160" height="26" as="geometry" />
        </mxCell>
        <mxCell id="NUtVhF5h9HZDoagzUMLB-82" value="types" style="text;align=left;verticalAlign=top;spacingLeft=4;spacingRight=4;overflow=hidden;rotatable=0;points=[[0,0.5],[1,0.5]];portConstraint=eastwest;" parent="NUtVhF5h9HZDoagzUMLB-79" vertex="1">
          <mxGeometry y="78" width="160" height="26" as="geometry" />
        </mxCell>
        <mxCell id="NUtVhF5h9HZDoagzUMLB-83" value="Maintainance" style="swimlane;fontStyle=0;align=center;verticalAlign=top;childLayout=stackLayout;horizontal=1;startSize=26;horizontalStack=0;resizeParent=1;resizeLast=0;collapsible=1;marginBottom=0;rounded=0;shadow=0;strokeWidth=1;" parent="1" vertex="1">
          <mxGeometry x="743" y="628" width="160" height="104" as="geometry">
            <mxRectangle x="130" y="380" width="160" height="26" as="alternateBounds" />
          </mxGeometry>
        </mxCell>
        <mxCell id="NUtVhF5h9HZDoagzUMLB-84" value="staff_ID {PK}" style="text;align=left;verticalAlign=top;spacingLeft=4;spacingRight=4;overflow=hidden;rotatable=0;points=[[0,0.5],[1,0.5]];portConstraint=eastwest;" parent="NUtVhF5h9HZDoagzUMLB-83" vertex="1">
          <mxGeometry y="26" width="160" height="26" as="geometry" />
        </mxCell>
        <mxCell id="NUtVhF5h9HZDoagzUMLB-85" value="artobject_ID {FK} Max20" style="text;align=left;verticalAlign=top;spacingLeft=4;spacingRight=4;overflow=hidden;rotatable=0;points=[[0,0.5],[1,0.5]];portConstraint=eastwest;" parent="NUtVhF5h9HZDoagzUMLB-83" vertex="1">
          <mxGeometry y="52" width="160" height="26" as="geometry" />
        </mxCell>
        <mxCell id="NUtVhF5h9HZDoagzUMLB-86" value="assign_date" style="text;align=left;verticalAlign=top;spacingLeft=4;spacingRight=4;overflow=hidden;rotatable=0;points=[[0,0.5],[1,0.5]];portConstraint=eastwest;" parent="NUtVhF5h9HZDoagzUMLB-83" vertex="1">
          <mxGeometry y="78" width="160" height="26" as="geometry" />
        </mxCell>
        <mxCell id="NUtVhF5h9HZDoagzUMLB-87" value="Allocation" style="swimlane;fontStyle=0;align=center;verticalAlign=top;childLayout=stackLayout;horizontal=1;startSize=26;horizontalStack=0;resizeParent=1;resizeLast=0;collapsible=1;marginBottom=0;rounded=0;shadow=0;strokeWidth=1;" parent="1" vertex="1">
          <mxGeometry x="1270" y="533" width="160" height="107" as="geometry">
            <mxRectangle x="130" y="380" width="160" height="26" as="alternateBounds" />
          </mxGeometry>
        </mxCell>
        <mxCell id="NUtVhF5h9HZDoagzUMLB-88" value="staff_ID {PK}" style="text;align=left;verticalAlign=top;spacingLeft=4;spacingRight=4;overflow=hidden;rotatable=0;points=[[0,0.5],[1,0.5]];portConstraint=eastwest;" parent="NUtVhF5h9HZDoagzUMLB-87" vertex="1">
          <mxGeometry y="26" width="160" height="26" as="geometry" />
        </mxCell>
        <mxCell id="NUtVhF5h9HZDoagzUMLB-89" value="exhibition_ID {FK}" style="text;align=left;verticalAlign=top;spacingLeft=4;spacingRight=4;overflow=hidden;rotatable=0;points=[[0,0.5],[1,0.5]];portConstraint=eastwest;" parent="NUtVhF5h9HZDoagzUMLB-87" vertex="1">
          <mxGeometry y="52" width="160" height="26" as="geometry" />
        </mxCell>
        <mxCell id="NUtVhF5h9HZDoagzUMLB-90" value="assign_date" style="text;align=left;verticalAlign=top;spacingLeft=4;spacingRight=4;overflow=hidden;rotatable=0;points=[[0,0.5],[1,0.5]];portConstraint=eastwest;" parent="NUtVhF5h9HZDoagzUMLB-87" vertex="1">
          <mxGeometry y="78" width="160" height="26" as="geometry" />
        </mxCell>
        <mxCell id="NUtVhF5h9HZDoagzUMLB-91" value="ExhibitionShow" style="swimlane;fontStyle=0;align=center;verticalAlign=top;childLayout=stackLayout;horizontal=1;startSize=26;horizontalStack=0;resizeParent=1;resizeLast=0;collapsible=1;marginBottom=0;rounded=0;shadow=0;strokeWidth=1;" parent="1" vertex="1">
          <mxGeometry x="770" y="377" width="160" height="130" as="geometry">
            <mxRectangle x="130" y="380" width="160" height="26" as="alternateBounds" />
          </mxGeometry>
        </mxCell>
        <mxCell id="NUtVhF5h9HZDoagzUMLB-92" value="exhibition_ID {FK}" style="text;align=left;verticalAlign=top;spacingLeft=4;spacingRight=4;overflow=hidden;rotatable=0;points=[[0,0.5],[1,0.5]];portConstraint=eastwest;" parent="NUtVhF5h9HZDoagzUMLB-91" vertex="1">
          <mxGeometry y="26" width="160" height="26" as="geometry" />
        </mxCell>
        <mxCell id="NUtVhF5h9HZDoagzUMLB-93" value="artobject_ID {FK}" style="text;align=left;verticalAlign=top;spacingLeft=4;spacingRight=4;overflow=hidden;rotatable=0;points=[[0,0.5],[1,0.5]];portConstraint=eastwest;" parent="NUtVhF5h9HZDoagzUMLB-91" vertex="1">
          <mxGeometry y="52" width="160" height="26" as="geometry" />
        </mxCell>
        <mxCell id="NUtVhF5h9HZDoagzUMLB-94" value="start_date_show" style="text;align=left;verticalAlign=top;spacingLeft=4;spacingRight=4;overflow=hidden;rotatable=0;points=[[0,0.5],[1,0.5]];portConstraint=eastwest;" parent="NUtVhF5h9HZDoagzUMLB-91" vertex="1">
          <mxGeometry y="78" width="160" height="26" as="geometry" />
        </mxCell>
        <mxCell id="NUtVhF5h9HZDoagzUMLB-95" value="end_date_show" style="text;align=left;verticalAlign=top;spacingLeft=4;spacingRight=4;overflow=hidden;rotatable=0;points=[[0,0.5],[1,0.5]];portConstraint=eastwest;" parent="NUtVhF5h9HZDoagzUMLB-91" vertex="1">
          <mxGeometry y="104" width="160" height="26" as="geometry" />
        </mxCell>
        <mxCell id="NUtVhF5h9HZDoagzUMLB-96" value="ExhibitionSell" style="swimlane;fontStyle=0;align=center;verticalAlign=top;childLayout=stackLayout;horizontal=1;startSize=26;horizontalStack=0;resizeParent=1;resizeLast=0;collapsible=1;marginBottom=0;rounded=0;shadow=0;strokeWidth=1;" parent="1" vertex="1">
          <mxGeometry x="1270" y="160" width="160" height="130" as="geometry">
            <mxRectangle x="130" y="380" width="160" height="26" as="alternateBounds" />
          </mxGeometry>
        </mxCell>
        <mxCell id="NUtVhF5h9HZDoagzUMLB-97" value="exhibition_ID {FK}" style="text;align=left;verticalAlign=top;spacingLeft=4;spacingRight=4;overflow=hidden;rotatable=0;points=[[0,0.5],[1,0.5]];portConstraint=eastwest;" parent="NUtVhF5h9HZDoagzUMLB-96" vertex="1">
          <mxGeometry y="26" width="160" height="26" as="geometry" />
        </mxCell>
        <mxCell id="NUtVhF5h9HZDoagzUMLB-98" value="mimic_ID {FK}" style="text;align=left;verticalAlign=top;spacingLeft=4;spacingRight=4;overflow=hidden;rotatable=0;points=[[0,0.5],[1,0.5]];portConstraint=eastwest;" parent="NUtVhF5h9HZDoagzUMLB-96" vertex="1">
          <mxGeometry y="52" width="160" height="26" as="geometry" />
        </mxCell>
        <mxCell id="NUtVhF5h9HZDoagzUMLB-99" value="start_date_sell" style="text;align=left;verticalAlign=top;spacingLeft=4;spacingRight=4;overflow=hidden;rotatable=0;points=[[0,0.5],[1,0.5]];portConstraint=eastwest;" parent="NUtVhF5h9HZDoagzUMLB-96" vertex="1">
          <mxGeometry y="78" width="160" height="26" as="geometry" />
        </mxCell>
        <mxCell id="NUtVhF5h9HZDoagzUMLB-100" value="end_date_sell" style="text;align=left;verticalAlign=top;spacingLeft=4;spacingRight=4;overflow=hidden;rotatable=0;points=[[0,0.5],[1,0.5]];portConstraint=eastwest;" parent="NUtVhF5h9HZDoagzUMLB-96" vertex="1">
          <mxGeometry y="104" width="160" height="26" as="geometry" />
        </mxCell>
        <mxCell id="NUtVhF5h9HZDoagzUMLB-101" value="&lt;font face=&quot;Tahoma&quot; style=&quot;font-size: 18px;&quot;&gt;&lt;font style=&quot;&quot;&gt;CS5097 Group3 :&amp;nbsp;&lt;/font&gt;&lt;/font&gt;&lt;span style=&quot;background-color: initial; font-size: 18px;&quot;&gt;&lt;font face=&quot;Tahoma&quot;&gt;Conceptual &lt;/font&gt;&lt;/span&gt;&lt;font style=&quot;background-color: initial; font-size: 18px;&quot; face=&quot;Tahoma&quot;&gt;&lt;span style=&quot;background-color: initial;&quot;&gt;Model&lt;/span&gt;&lt;/font&gt;" style="text;html=1;align=left;verticalAlign=middle;whiteSpace=wrap;rounded=0;fontStyle=1" parent="1" vertex="1">
          <mxGeometry x="10" width="380" height="60" as="geometry" />
        </mxCell>
        <mxCell id="NUtVhF5h9HZDoagzUMLB-102" value="Invitation" style="swimlane;fontStyle=0;align=center;verticalAlign=top;childLayout=stackLayout;horizontal=1;startSize=26;horizontalStack=0;resizeParent=1;resizeLast=0;collapsible=1;marginBottom=0;rounded=0;shadow=0;strokeWidth=1;" parent="1" vertex="1">
          <mxGeometry x="1270" y="376" width="160" height="135" as="geometry">
            <mxRectangle x="130" y="380" width="160" height="26" as="alternateBounds" />
          </mxGeometry>
        </mxCell>
        <mxCell id="NUtVhF5h9HZDoagzUMLB-103" value="invitation_ID {PK}" style="text;align=left;verticalAlign=top;spacingLeft=4;spacingRight=4;overflow=hidden;rotatable=0;points=[[0,0.5],[1,0.5]];portConstraint=eastwest;" parent="NUtVhF5h9HZDoagzUMLB-102" vertex="1">
          <mxGeometry y="26" width="160" height="26" as="geometry" />
        </mxCell>
        <mxCell id="NUtVhF5h9HZDoagzUMLB-104" value="exhibition_ID {FK}" style="text;align=left;verticalAlign=top;spacingLeft=4;spacingRight=4;overflow=hidden;rotatable=0;points=[[0,0.5],[1,0.5]];portConstraint=eastwest;" parent="NUtVhF5h9HZDoagzUMLB-102" vertex="1">
          <mxGeometry y="52" width="160" height="26" as="geometry" />
        </mxCell>
        <mxCell id="NUtVhF5h9HZDoagzUMLB-105" value="loyaltymember_No {FK}" style="text;align=left;verticalAlign=top;spacingLeft=4;spacingRight=4;overflow=hidden;rotatable=0;points=[[0,0.5],[1,0.5]];portConstraint=eastwest;" parent="NUtVhF5h9HZDoagzUMLB-102" vertex="1">
          <mxGeometry y="78" width="160" height="26" as="geometry" />
        </mxCell>
        <mxCell id="NUtVhF5h9HZDoagzUMLB-106" value="sent_invitation_date" style="text;align=left;verticalAlign=top;spacingLeft=4;spacingRight=4;overflow=hidden;rotatable=0;points=[[0,0.5],[1,0.5]];portConstraint=eastwest;" parent="NUtVhF5h9HZDoagzUMLB-102" vertex="1">
          <mxGeometry y="104" width="160" height="26" as="geometry" />
        </mxCell>
        <mxCell id="NUtVhF5h9HZDoagzUMLB-113" value="" style="endArrow=none;html=1;rounded=0;exitX=0;exitY=0.5;exitDx=0;exitDy=0;entryX=0.5;entryY=0;entryDx=0;entryDy=0;" parent="1" target="NUtVhF5h9HZDoagzUMLB-40" edge="1" source="NUtVhF5h9HZDoagzUMLB-226">
          <mxGeometry width="50" height="50" relative="1" as="geometry">
            <mxPoint x="600.5" y="849" as="sourcePoint" />
            <mxPoint x="581" y="770" as="targetPoint" />
          </mxGeometry>
        </mxCell>
        <mxCell id="NUtVhF5h9HZDoagzUMLB-114" value="" style="endArrow=none;html=1;rounded=0;exitX=0;exitY=0.5;exitDx=0;exitDy=0;entryX=0.997;entryY=0;entryDx=0;entryDy=0;entryPerimeter=0;" parent="1" source="NUtVhF5h9HZDoagzUMLB-28" target="NUtVhF5h9HZDoagzUMLB-10" edge="1">
          <mxGeometry width="50" height="50" relative="1" as="geometry">
            <mxPoint x="438" y="530" as="sourcePoint" />
            <mxPoint x="378" y="540" as="targetPoint" />
            <Array as="points">
              <mxPoint x="340" y="645" />
            </Array>
          </mxGeometry>
        </mxCell>
        <mxCell id="NUtVhF5h9HZDoagzUMLB-214" value="Museum Art Collections" style="edgeLabel;html=1;align=center;verticalAlign=middle;resizable=0;points=[];" parent="NUtVhF5h9HZDoagzUMLB-114" vertex="1" connectable="0">
          <mxGeometry x="0.2907" y="-2" relative="1" as="geometry">
            <mxPoint x="20" y="-8" as="offset" />
          </mxGeometry>
        </mxCell>
        <mxCell id="NUtVhF5h9HZDoagzUMLB-116" value="" style="endArrow=none;html=1;rounded=0;exitX=0.999;exitY=0.002;exitDx=0;exitDy=0;exitPerimeter=0;entryX=-0.005;entryY=-0.004;entryDx=0;entryDy=0;entryPerimeter=0;" parent="1" source="NUtVhF5h9HZDoagzUMLB-32" target="NUtVhF5h9HZDoagzUMLB-17" edge="1">
          <mxGeometry width="50" height="50" relative="1" as="geometry">
            <mxPoint x="478" y="570" as="sourcePoint" />
            <mxPoint x="508" y="280" as="targetPoint" />
            <Array as="points">
              <mxPoint x="430" y="106" />
              <mxPoint x="428" y="346" />
            </Array>
          </mxGeometry>
        </mxCell>
        <mxCell id="NUtVhF5h9HZDoagzUMLB-117" value="Artist create&lt;br&gt;Art Object" style="edgeLabel;html=1;align=right;verticalAlign=middle;resizable=0;points=[];rotation=0;" parent="NUtVhF5h9HZDoagzUMLB-116" vertex="1" connectable="0">
          <mxGeometry x="-0.4645" relative="1" as="geometry">
            <mxPoint x="9" y="44" as="offset" />
          </mxGeometry>
        </mxCell>
        <mxCell id="NUtVhF5h9HZDoagzUMLB-118" value="{Mandatory,Or}" style="text;whiteSpace=wrap;" parent="1" vertex="1">
          <mxGeometry x="607" y="756" width="90" height="30" as="geometry" />
        </mxCell>
        <mxCell id="NUtVhF5h9HZDoagzUMLB-119" value="" style="endArrow=none;html=1;rounded=0;exitX=-0.002;exitY=0.001;exitDx=0;exitDy=0;exitPerimeter=0;entryX=0.5;entryY=0;entryDx=0;entryDy=0;" parent="1" source="NUtVhF5h9HZDoagzUMLB-69" target="NUtVhF5h9HZDoagzUMLB-16" edge="1">
          <mxGeometry width="50" height="50" relative="1" as="geometry">
            <mxPoint x="673" y="60" as="sourcePoint" />
            <mxPoint x="610" y="290" as="targetPoint" />
            <Array as="points">
              <mxPoint x="600" y="146" />
            </Array>
          </mxGeometry>
        </mxCell>
        <mxCell id="NUtVhF5h9HZDoagzUMLB-120" value="Mimic of the &lt;br&gt;original art object" style="edgeLabel;html=1;align=center;verticalAlign=middle;resizable=0;points=[];" parent="NUtVhF5h9HZDoagzUMLB-119" vertex="1" connectable="0">
          <mxGeometry x="0.1043" y="2" relative="1" as="geometry">
            <mxPoint x="3" y="-49" as="offset" />
          </mxGeometry>
        </mxCell>
        <mxCell id="NUtVhF5h9HZDoagzUMLB-121" value="" style="endArrow=none;html=1;rounded=0;exitX=0.001;exitY=0.004;exitDx=0;exitDy=0;exitPerimeter=0;entryX=0.995;entryY=-0.004;entryDx=0;entryDy=0;entryPerimeter=0;" parent="1" source="NUtVhF5h9HZDoagzUMLB-62" target="NUtVhF5h9HZDoagzUMLB-17" edge="1">
          <mxGeometry width="50" height="50" relative="1" as="geometry">
            <mxPoint x="870" y="230" as="sourcePoint" />
            <mxPoint x="580" y="350" as="targetPoint" />
          </mxGeometry>
        </mxCell>
        <mxCell id="NUtVhF5h9HZDoagzUMLB-122" value="Exhibition show Art Object" style="edgeLabel;html=1;align=center;verticalAlign=middle;resizable=0;points=[];" parent="NUtVhF5h9HZDoagzUMLB-121" vertex="1" connectable="0">
          <mxGeometry x="0.0084" y="1" relative="1" as="geometry">
            <mxPoint x="-8" y="-12" as="offset" />
          </mxGeometry>
        </mxCell>
        <mxCell id="NUtVhF5h9HZDoagzUMLB-123" value="" style="endArrow=none;html=1;rounded=0;exitX=0;exitY=-0.002;exitDx=0;exitDy=0;exitPerimeter=0;entryX=1;entryY=0.769;entryDx=0;entryDy=0;entryPerimeter=0;" parent="1" source="NUtVhF5h9HZDoagzUMLB-80" target="NUtVhF5h9HZDoagzUMLB-26" edge="1">
          <mxGeometry width="50" height="50" relative="1" as="geometry">
            <mxPoint x="890" y="356" as="sourcePoint" />
            <mxPoint x="550" y="656" as="targetPoint" />
            <Array as="points" />
          </mxGeometry>
        </mxCell>
        <mxCell id="NUtVhF5h9HZDoagzUMLB-124" value="Curator maintain Art Object" style="edgeLabel;html=1;align=center;verticalAlign=middle;resizable=0;points=[];" parent="NUtVhF5h9HZDoagzUMLB-123" vertex="1" connectable="0">
          <mxGeometry x="-0.0407" y="2" relative="1" as="geometry">
            <mxPoint x="-19" y="-11" as="offset" />
          </mxGeometry>
        </mxCell>
        <mxCell id="NUtVhF5h9HZDoagzUMLB-125" value="" style="endArrow=none;html=1;rounded=0;exitX=0;exitY=0;exitDx=0;exitDy=0;exitPerimeter=0;entryX=1;entryY=0;entryDx=0;entryDy=0;entryPerimeter=0;" parent="1" source="NUtVhF5h9HZDoagzUMLB-74" target="NUtVhF5h9HZDoagzUMLB-62" edge="1">
          <mxGeometry width="50" height="50" relative="1" as="geometry">
            <mxPoint x="1010" y="356" as="sourcePoint" />
            <mxPoint x="1180" y="310" as="targetPoint" />
          </mxGeometry>
        </mxCell>
        <mxCell id="NUtVhF5h9HZDoagzUMLB-126" value="Invitation Loyal Visitor&lt;div&gt;to Featured Exhibition&lt;/div&gt;" style="edgeLabel;html=1;align=center;verticalAlign=middle;resizable=0;points=[];" parent="NUtVhF5h9HZDoagzUMLB-125" vertex="1" connectable="0">
          <mxGeometry x="-0.0271" y="3" relative="1" as="geometry">
            <mxPoint x="10" y="-20" as="offset" />
          </mxGeometry>
        </mxCell>
        <mxCell id="NUtVhF5h9HZDoagzUMLB-127" value="" style="endArrow=none;html=1;rounded=0;entryX=0.5;entryY=0;entryDx=0;entryDy=0;dashed=1;" parent="1" target="NUtVhF5h9HZDoagzUMLB-91" edge="1">
          <mxGeometry width="50" height="50" relative="1" as="geometry">
            <mxPoint x="850" y="347" as="sourcePoint" />
            <mxPoint x="849.8" y="382" as="targetPoint" />
          </mxGeometry>
        </mxCell>
        <mxCell id="NUtVhF5h9HZDoagzUMLB-128" value="" style="endArrow=none;html=1;rounded=0;entryX=0.5;entryY=0;entryDx=0;entryDy=0;dashed=1;" parent="1" target="NUtVhF5h9HZDoagzUMLB-83" edge="1">
          <mxGeometry width="50" height="50" relative="1" as="geometry">
            <mxPoint x="823" y="601" as="sourcePoint" />
            <mxPoint x="833" y="415" as="targetPoint" />
          </mxGeometry>
        </mxCell>
        <mxCell id="NUtVhF5h9HZDoagzUMLB-129" value="" style="endArrow=none;html=1;rounded=0;entryX=0.5;entryY=0;entryDx=0;entryDy=0;dashed=1;" parent="1" target="NUtVhF5h9HZDoagzUMLB-102" edge="1">
          <mxGeometry width="50" height="50" relative="1" as="geometry">
            <mxPoint x="1350" y="346" as="sourcePoint" />
            <mxPoint x="880" y="401" as="targetPoint" />
          </mxGeometry>
        </mxCell>
        <mxCell id="NUtVhF5h9HZDoagzUMLB-130" value="" style="endArrow=none;html=1;rounded=0;entryX=0.007;entryY=-0.002;entryDx=0;entryDy=0;dashed=1;entryPerimeter=0;" parent="1" target="NUtVhF5h9HZDoagzUMLB-88" edge="1">
          <mxGeometry width="50" height="50" relative="1" as="geometry">
            <mxPoint x="1080" y="559" as="sourcePoint" />
            <mxPoint x="1580" y="753" as="targetPoint" />
          </mxGeometry>
        </mxCell>
        <mxCell id="NUtVhF5h9HZDoagzUMLB-131" value="" style="endArrow=none;html=1;rounded=0;entryX=0.5;entryY=0;entryDx=0;entryDy=0;exitX=0.502;exitY=1.003;exitDx=0;exitDy=0;exitPerimeter=0;" parent="1" source="NUtVhF5h9HZDoagzUMLB-67" target="NUtVhF5h9HZDoagzUMLB-79" edge="1">
          <mxGeometry width="50" height="50" relative="1" as="geometry">
            <mxPoint x="1080" y="510" as="sourcePoint" />
            <mxPoint x="470" y="630" as="targetPoint" />
          </mxGeometry>
        </mxCell>
        <mxCell id="NUtVhF5h9HZDoagzUMLB-132" value="Supervisor allocate Exhibition" style="edgeLabel;html=1;align=center;verticalAlign=middle;resizable=0;points=[];" parent="NUtVhF5h9HZDoagzUMLB-131" vertex="1" connectable="0">
          <mxGeometry x="0.0172" y="2" relative="1" as="geometry">
            <mxPoint x="75" y="5" as="offset" />
          </mxGeometry>
        </mxCell>
        <mxCell id="NUtVhF5h9HZDoagzUMLB-133" value="" style="endArrow=none;html=1;rounded=0;entryX=0.5;entryY=0;entryDx=0;entryDy=0;exitX=0.996;exitY=0.001;exitDx=0;exitDy=0;exitPerimeter=0;" parent="1" source="NUtVhF5h9HZDoagzUMLB-69" target="NUtVhF5h9HZDoagzUMLB-61" edge="1">
          <mxGeometry width="50" height="50" relative="1" as="geometry">
            <mxPoint x="830" y="150" as="sourcePoint" />
            <mxPoint x="350" y="630" as="targetPoint" />
            <Array as="points">
              <mxPoint x="1080" y="146" />
            </Array>
          </mxGeometry>
        </mxCell>
        <mxCell id="NUtVhF5h9HZDoagzUMLB-134" value="Featured Exhibitions sell Mimic" style="edgeLabel;html=1;align=center;verticalAlign=middle;resizable=0;points=[];" parent="NUtVhF5h9HZDoagzUMLB-133" vertex="1" connectable="0">
          <mxGeometry x="0.2913" y="2" relative="1" as="geometry">
            <mxPoint x="-42" y="-61" as="offset" />
          </mxGeometry>
        </mxCell>
        <mxCell id="NUtVhF5h9HZDoagzUMLB-135" value="" style="endArrow=none;html=1;rounded=0;dashed=1;entryX=-0.002;entryY=0;entryDx=0;entryDy=0;entryPerimeter=0;" parent="1" target="NUtVhF5h9HZDoagzUMLB-97" edge="1">
          <mxGeometry width="50" height="50" relative="1" as="geometry">
            <mxPoint x="1080" y="186" as="sourcePoint" />
            <mxPoint x="1235" y="190" as="targetPoint" />
          </mxGeometry>
        </mxCell>
        <mxCell id="NUtVhF5h9HZDoagzUMLB-136" value="[1..*]" style="text;html=1;align=center;verticalAlign=middle;whiteSpace=wrap;rounded=0;" parent="1" vertex="1">
          <mxGeometry x="461.5" y="320" width="45" height="30" as="geometry" />
        </mxCell>
        <mxCell id="NUtVhF5h9HZDoagzUMLB-137" value="[1..*]" style="text;html=1;align=center;verticalAlign=middle;whiteSpace=wrap;rounded=0;" parent="1" vertex="1">
          <mxGeometry x="294" y="80" width="45" height="30" as="geometry" />
        </mxCell>
        <mxCell id="NUtVhF5h9HZDoagzUMLB-138" value="[1..1]" style="text;html=1;align=center;verticalAlign=middle;whiteSpace=wrap;rounded=0;" parent="1" vertex="1">
          <mxGeometry x="560" y="295" width="45" height="30" as="geometry" />
        </mxCell>
        <mxCell id="NUtVhF5h9HZDoagzUMLB-139" value="[0..*]" style="text;html=1;align=center;verticalAlign=middle;whiteSpace=wrap;rounded=0;" parent="1" vertex="1">
          <mxGeometry x="703" y="120" width="45" height="30" as="geometry" />
        </mxCell>
        <mxCell id="NUtVhF5h9HZDoagzUMLB-140" value="[1..*]" style="text;html=1;align=center;verticalAlign=middle;whiteSpace=wrap;rounded=0;" parent="1" vertex="1">
          <mxGeometry x="694" y="322" width="45" height="30" as="geometry" />
        </mxCell>
        <mxCell id="NUtVhF5h9HZDoagzUMLB-141" value="[0..*]" style="text;html=1;align=center;verticalAlign=middle;whiteSpace=wrap;rounded=0;" parent="1" vertex="1">
          <mxGeometry x="899" y="120" width="45" height="30" as="geometry" />
        </mxCell>
        <mxCell id="NUtVhF5h9HZDoagzUMLB-142" value="[1..*]" style="text;html=1;align=center;verticalAlign=middle;whiteSpace=wrap;rounded=0;" parent="1" vertex="1">
          <mxGeometry x="957.5" y="322" width="45" height="30" as="geometry" />
        </mxCell>
        <mxCell id="NUtVhF5h9HZDoagzUMLB-143" value="[1..1]" style="text;html=1;align=center;verticalAlign=middle;whiteSpace=wrap;rounded=0;" parent="1" vertex="1">
          <mxGeometry x="1077" y="292" width="45" height="30" as="geometry" />
        </mxCell>
        <mxCell id="NUtVhF5h9HZDoagzUMLB-144" value="[1..*]" style="text;html=1;align=center;verticalAlign=middle;whiteSpace=wrap;rounded=0;" parent="1" vertex="1">
          <mxGeometry x="957.5" y="576" width="45" height="30" as="geometry" />
        </mxCell>
        <mxCell id="NUtVhF5h9HZDoagzUMLB-145" value="[0..20]" style="text;html=1;align=center;verticalAlign=middle;whiteSpace=wrap;rounded=0;" parent="1" vertex="1">
          <mxGeometry x="698" y="576" width="45" height="30" as="geometry" />
        </mxCell>
        <mxCell id="NUtVhF5h9HZDoagzUMLB-146" value="[1..1]" style="text;html=1;align=center;verticalAlign=middle;whiteSpace=wrap;rounded=0;" parent="1" vertex="1">
          <mxGeometry x="1157" y="322" width="45" height="30" as="geometry" />
        </mxCell>
        <mxCell id="NUtVhF5h9HZDoagzUMLB-147" value="[1..*]" style="text;html=1;align=center;verticalAlign=middle;whiteSpace=wrap;rounded=0;" parent="1" vertex="1">
          <mxGeometry x="1469" y="322" width="45" height="30" as="geometry" />
        </mxCell>
        <mxCell id="NUtVhF5h9HZDoagzUMLB-148" value="[1..*]" style="text;html=1;align=center;verticalAlign=middle;whiteSpace=wrap;rounded=0;" parent="1" vertex="1">
          <mxGeometry x="1040" y="550" width="45" height="30" as="geometry" />
        </mxCell>
        <mxCell id="NUtVhF5h9HZDoagzUMLB-149" value="[0..*]" style="text;html=1;align=center;verticalAlign=middle;whiteSpace=wrap;rounded=0;" parent="1" vertex="1">
          <mxGeometry x="1040" y="497" width="45" height="30" as="geometry" />
        </mxCell>
        <mxCell id="NUtVhF5h9HZDoagzUMLB-150" value="[1..*]" style="text;html=1;align=center;verticalAlign=middle;whiteSpace=wrap;rounded=0;" parent="1" vertex="1">
          <mxGeometry x="460.5" y="638" width="45" height="30" as="geometry" />
        </mxCell>
        <mxCell id="NUtVhF5h9HZDoagzUMLB-151" value="[1..1]" style="text;html=1;align=center;verticalAlign=middle;whiteSpace=wrap;rounded=0;" parent="1" vertex="1">
          <mxGeometry x="244" y="639" width="45" height="30" as="geometry" />
        </mxCell>
        <mxCell id="NUtVhF5h9HZDoagzUMLB-152" value="LoyaltyCard" style="swimlane;fontStyle=0;align=center;verticalAlign=top;childLayout=stackLayout;horizontal=1;startSize=26;horizontalStack=0;resizeParent=1;resizeLast=0;collapsible=1;marginBottom=0;rounded=0;shadow=0;strokeWidth=1;" parent="1" vertex="1">
          <mxGeometry x="1510" y="560" width="160" height="104" as="geometry">
            <mxRectangle x="130" y="380" width="160" height="26" as="alternateBounds" />
          </mxGeometry>
        </mxCell>
        <mxCell id="NUtVhF5h9HZDoagzUMLB-153" value="loyaltycard_No {PK}" style="text;align=left;verticalAlign=top;spacingLeft=4;spacingRight=4;overflow=hidden;rotatable=0;points=[[0,0.5],[1,0.5]];portConstraint=eastwest;" parent="NUtVhF5h9HZDoagzUMLB-152" vertex="1">
          <mxGeometry y="26" width="160" height="26" as="geometry" />
        </mxCell>
        <mxCell id="NUtVhF5h9HZDoagzUMLB-154" value="loyaltymember_No {FK}" style="text;align=left;verticalAlign=top;spacingLeft=4;spacingRight=4;overflow=hidden;rotatable=0;points=[[0,0.5],[1,0.5]];portConstraint=eastwest;" parent="NUtVhF5h9HZDoagzUMLB-152" vertex="1">
          <mxGeometry y="52" width="160" height="26" as="geometry" />
        </mxCell>
        <mxCell id="NUtVhF5h9HZDoagzUMLB-155" value="cardissue_date" style="text;align=left;verticalAlign=top;spacingLeft=4;spacingRight=4;overflow=hidden;rotatable=0;points=[[0,0.5],[1,0.5]];portConstraint=eastwest;" parent="NUtVhF5h9HZDoagzUMLB-152" vertex="1">
          <mxGeometry y="78" width="160" height="26" as="geometry" />
        </mxCell>
        <mxCell id="NUtVhF5h9HZDoagzUMLB-156" value="" style="endArrow=none;html=1;rounded=0;entryX=0.5;entryY=1.192;entryDx=0;entryDy=0;entryPerimeter=0;exitX=0.5;exitY=0;exitDx=0;exitDy=0;" parent="1" source="NUtVhF5h9HZDoagzUMLB-152" target="NUtVhF5h9HZDoagzUMLB-78" edge="1">
          <mxGeometry width="50" height="50" relative="1" as="geometry">
            <mxPoint x="1400" y="560" as="sourcePoint" />
            <mxPoint x="1450" y="510" as="targetPoint" />
          </mxGeometry>
        </mxCell>
        <mxCell id="NUtVhF5h9HZDoagzUMLB-157" value="Loyal visitor issue&lt;div&gt;a loyalty card&lt;/div&gt;" style="edgeLabel;html=1;align=left;verticalAlign=middle;resizable=0;points=[];" parent="NUtVhF5h9HZDoagzUMLB-156" vertex="1" connectable="0">
          <mxGeometry x="0.0492" y="-2" relative="1" as="geometry">
            <mxPoint x="1" y="-7" as="offset" />
          </mxGeometry>
        </mxCell>
        <mxCell id="NUtVhF5h9HZDoagzUMLB-158" value="[1..1]" style="text;html=1;align=center;verticalAlign=middle;whiteSpace=wrap;rounded=0;" parent="1" vertex="1">
          <mxGeometry x="1550" y="475" width="45" height="30" as="geometry" />
        </mxCell>
        <mxCell id="NUtVhF5h9HZDoagzUMLB-159" value="[1..1]" style="text;html=1;align=center;verticalAlign=middle;whiteSpace=wrap;rounded=0;" parent="1" vertex="1">
          <mxGeometry x="1550" y="536" width="45" height="30" as="geometry" />
        </mxCell>
        <mxCell id="NUtVhF5h9HZDoagzUMLB-160" value="" style="shape=mxgraph.arrows2.wedgeArrow;html=1;bendable=0;startWidth=5;fillColor=strokeColor;defaultFillColor=invert;defaultGradientColor=invert;rounded=0;endSize=8;arcSize=100;" parent="1" edge="1">
          <mxGeometry width="100" height="100" relative="1" as="geometry">
            <mxPoint x="335" y="266.72" as="sourcePoint" />
            <mxPoint x="335" y="276.72" as="targetPoint" />
          </mxGeometry>
        </mxCell>
        <mxCell id="NUtVhF5h9HZDoagzUMLB-161" value="" style="shape=mxgraph.arrows2.wedgeArrow;html=1;bendable=0;startWidth=5;fillColor=strokeColor;defaultFillColor=invert;defaultGradientColor=invert;rounded=0;endSize=8;arcSize=100;" parent="1" edge="1">
          <mxGeometry width="100" height="100" relative="1" as="geometry">
            <mxPoint x="654" y="135.02" as="sourcePoint" />
            <mxPoint x="664" y="134.82000000000002" as="targetPoint" />
          </mxGeometry>
        </mxCell>
        <mxCell id="NUtVhF5h9HZDoagzUMLB-162" value="" style="shape=mxgraph.arrows2.wedgeArrow;html=1;bendable=0;startWidth=5;fillColor=strokeColor;defaultFillColor=invert;defaultGradientColor=invert;rounded=0;endSize=8;arcSize=100;" parent="1" edge="1">
          <mxGeometry width="100" height="100" relative="1" as="geometry">
            <mxPoint x="956" y="134.8" as="sourcePoint" />
            <mxPoint x="946" y="134.8" as="targetPoint" />
          </mxGeometry>
        </mxCell>
        <mxCell id="NUtVhF5h9HZDoagzUMLB-164" value="" style="shape=mxgraph.arrows2.wedgeArrow;html=1;bendable=0;startWidth=5;fillColor=strokeColor;defaultFillColor=invert;defaultGradientColor=invert;rounded=0;endSize=8;arcSize=100;" parent="1" edge="1">
          <mxGeometry width="100" height="100" relative="1" as="geometry">
            <mxPoint x="770" y="334.83" as="sourcePoint" />
            <mxPoint x="760" y="334.83" as="targetPoint" />
          </mxGeometry>
        </mxCell>
        <mxCell id="NUtVhF5h9HZDoagzUMLB-165" value="" style="shape=mxgraph.arrows2.wedgeArrow;html=1;bendable=0;startWidth=5;fillColor=strokeColor;defaultFillColor=invert;defaultGradientColor=invert;rounded=0;endSize=8;arcSize=100;" parent="1" edge="1">
          <mxGeometry width="100" height="100" relative="1" as="geometry">
            <mxPoint x="767" y="590.89" as="sourcePoint" />
            <mxPoint x="757" y="590.89" as="targetPoint" />
          </mxGeometry>
        </mxCell>
        <mxCell id="NUtVhF5h9HZDoagzUMLB-166" value="" style="shape=mxgraph.arrows2.wedgeArrow;html=1;bendable=0;startWidth=5;fillColor=strokeColor;defaultFillColor=invert;defaultGradientColor=invert;rounded=0;endSize=8;arcSize=100;" parent="1" edge="1">
          <mxGeometry width="100" height="100" relative="1" as="geometry">
            <mxPoint x="1091" y="535" as="sourcePoint" />
            <mxPoint x="1091" y="525" as="targetPoint" />
          </mxGeometry>
        </mxCell>
        <mxCell id="NUtVhF5h9HZDoagzUMLB-167" value="" style="shape=mxgraph.arrows2.wedgeArrow;html=1;bendable=0;startWidth=5;fillColor=strokeColor;defaultFillColor=invert;defaultGradientColor=invert;rounded=0;endSize=8;arcSize=100;" parent="1" edge="1">
          <mxGeometry width="100" height="100" relative="1" as="geometry">
            <mxPoint x="1409.71" y="334.76" as="sourcePoint" />
            <mxPoint x="1419.71" y="334.76" as="targetPoint" />
          </mxGeometry>
        </mxCell>
        <mxCell id="NUtVhF5h9HZDoagzUMLB-168" value="" style="shape=mxgraph.arrows2.wedgeArrow;html=1;bendable=0;startWidth=5;fillColor=strokeColor;defaultFillColor=invert;defaultGradientColor=invert;rounded=0;endSize=8;arcSize=100;" parent="1" edge="1">
          <mxGeometry width="100" height="100" relative="1" as="geometry">
            <mxPoint x="1601" y="528" as="sourcePoint" />
            <mxPoint x="1601" y="538" as="targetPoint" />
          </mxGeometry>
        </mxCell>
        <mxCell id="NUtVhF5h9HZDoagzUMLB-169" value="CountryCultureOrigin" style="swimlane;fontStyle=0;align=center;verticalAlign=top;childLayout=stackLayout;horizontal=1;startSize=26;horizontalStack=0;resizeParent=1;resizeLast=0;collapsible=1;marginBottom=0;rounded=0;shadow=0;strokeWidth=1;" parent="1" vertex="1">
          <mxGeometry x="239" y="350" width="170" height="110" as="geometry">
            <mxRectangle x="130" y="380" width="160" height="26" as="alternateBounds" />
          </mxGeometry>
        </mxCell>
        <mxCell id="NUtVhF5h9HZDoagzUMLB-170" value="countrycultureorigin_ID {PK}" style="text;align=left;verticalAlign=top;spacingLeft=4;spacingRight=4;overflow=hidden;rotatable=0;points=[[0,0.5],[1,0.5]];portConstraint=eastwest;" parent="NUtVhF5h9HZDoagzUMLB-169" vertex="1">
          <mxGeometry y="26" width="170" height="26" as="geometry" />
        </mxCell>
        <mxCell id="NUtVhF5h9HZDoagzUMLB-171" value="countrycultureorigin_name" style="text;align=left;verticalAlign=top;spacingLeft=4;spacingRight=4;overflow=hidden;rotatable=0;points=[[0,0.5],[1,0.5]];portConstraint=eastwest;" parent="NUtVhF5h9HZDoagzUMLB-169" vertex="1">
          <mxGeometry y="52" width="170" height="26" as="geometry" />
        </mxCell>
        <mxCell id="NUtVhF5h9HZDoagzUMLB-172" value="description" style="text;align=left;verticalAlign=top;spacingLeft=4;spacingRight=4;overflow=hidden;rotatable=0;points=[[0,0.5],[1,0.5]];portConstraint=eastwest;" parent="NUtVhF5h9HZDoagzUMLB-169" vertex="1">
          <mxGeometry y="78" width="170" height="26" as="geometry" />
        </mxCell>
        <mxCell id="NUtVhF5h9HZDoagzUMLB-174" value="" style="endArrow=none;html=1;rounded=0;exitX=0;exitY=0.5;exitDx=0;exitDy=0;" parent="1" source="NUtVhF5h9HZDoagzUMLB-22" edge="1">
          <mxGeometry width="50" height="50" relative="1" as="geometry">
            <mxPoint x="380" y="380" as="sourcePoint" />
            <mxPoint x="321" y="460" as="targetPoint" />
            <Array as="points">
              <mxPoint x="321" y="490" />
            </Array>
          </mxGeometry>
        </mxCell>
        <mxCell id="NUtVhF5h9HZDoagzUMLB-184" value="Country or Culture of Origin" style="edgeLabel;html=1;align=center;verticalAlign=middle;resizable=0;points=[];" parent="NUtVhF5h9HZDoagzUMLB-174" vertex="1" connectable="0">
          <mxGeometry x="-0.111" relative="1" as="geometry">
            <mxPoint x="9" y="-9" as="offset" />
          </mxGeometry>
        </mxCell>
        <mxCell id="NUtVhF5h9HZDoagzUMLB-177" value="" style="endArrow=none;html=1;rounded=0;entryX=1;entryY=0.5;entryDx=0;entryDy=0;exitX=0.5;exitY=0;exitDx=0;exitDy=0;" parent="1" source="NUtVhF5h9HZDoagzUMLB-169" target="NUtVhF5h9HZDoagzUMLB-36" edge="1">
          <mxGeometry width="50" height="50" relative="1" as="geometry">
            <mxPoint x="354" y="440" as="sourcePoint" />
            <mxPoint x="424" y="370" as="targetPoint" />
            <Array as="points">
              <mxPoint x="324" y="223" />
            </Array>
          </mxGeometry>
        </mxCell>
        <mxCell id="NUtVhF5h9HZDoagzUMLB-183" value="Country&amp;nbsp;&lt;div&gt;of origin&lt;/div&gt;" style="edgeLabel;html=1;align=left;verticalAlign=middle;resizable=0;points=[];" parent="NUtVhF5h9HZDoagzUMLB-177" vertex="1" connectable="0">
          <mxGeometry x="-0.4629" y="-1" relative="1" as="geometry">
            <mxPoint x="2" y="-63" as="offset" />
          </mxGeometry>
        </mxCell>
        <mxCell id="NUtVhF5h9HZDoagzUMLB-179" value="" style="endArrow=none;html=1;rounded=0;entryX=0;entryY=0.5;entryDx=0;entryDy=0;exitX=0.5;exitY=0;exitDx=0;exitDy=0;" parent="1" source="NUtVhF5h9HZDoagzUMLB-1" target="NUtVhF5h9HZDoagzUMLB-37" edge="1">
          <mxGeometry width="50" height="50" relative="1" as="geometry">
            <mxPoint x="244" y="360" as="sourcePoint" />
            <mxPoint x="294" y="310" as="targetPoint" />
            <Array as="points">
              <mxPoint x="104" y="249" />
            </Array>
          </mxGeometry>
        </mxCell>
        <mxCell id="NUtVhF5h9HZDoagzUMLB-186" value="Artist Epoch" style="edgeLabel;html=1;align=center;verticalAlign=middle;resizable=0;points=[];" parent="NUtVhF5h9HZDoagzUMLB-179" vertex="1" connectable="0">
          <mxGeometry x="-0.4191" y="-1" relative="1" as="geometry">
            <mxPoint x="-36" y="-42" as="offset" />
          </mxGeometry>
        </mxCell>
        <mxCell id="NUtVhF5h9HZDoagzUMLB-182" value="" style="endArrow=none;html=1;rounded=0;entryX=0;entryY=0.5;entryDx=0;entryDy=0;exitX=0.5;exitY=1;exitDx=0;exitDy=0;" parent="1" source="NUtVhF5h9HZDoagzUMLB-1" target="NUtVhF5h9HZDoagzUMLB-23" edge="1">
          <mxGeometry width="50" height="50" relative="1" as="geometry">
            <mxPoint x="330" y="390" as="sourcePoint" />
            <mxPoint x="380" y="340" as="targetPoint" />
            <Array as="points">
              <mxPoint x="104" y="515" />
            </Array>
          </mxGeometry>
        </mxCell>
        <mxCell id="NUtVhF5h9HZDoagzUMLB-185" value="Art Object Epoch" style="edgeLabel;html=1;align=center;verticalAlign=middle;resizable=0;points=[];" parent="NUtVhF5h9HZDoagzUMLB-182" vertex="1" connectable="0">
          <mxGeometry x="-0.1191" y="-2" relative="1" as="geometry">
            <mxPoint x="3" y="-12" as="offset" />
          </mxGeometry>
        </mxCell>
        <mxCell id="NUtVhF5h9HZDoagzUMLB-187" value="" style="shape=mxgraph.arrows2.wedgeArrow;html=1;bendable=0;startWidth=5;fillColor=strokeColor;defaultFillColor=invert;defaultGradientColor=invert;rounded=0;endSize=8;arcSize=100;" parent="1" edge="1">
          <mxGeometry width="100" height="100" relative="1" as="geometry">
            <mxPoint x="94.00000000000001" y="285" as="sourcePoint" />
            <mxPoint x="94.00000000000001" y="295" as="targetPoint" />
          </mxGeometry>
        </mxCell>
        <mxCell id="NUtVhF5h9HZDoagzUMLB-188" value="" style="shape=mxgraph.arrows2.wedgeArrow;html=1;bendable=0;startWidth=5;fillColor=strokeColor;defaultFillColor=invert;defaultGradientColor=invert;rounded=0;endSize=8;arcSize=100;" parent="1" edge="1">
          <mxGeometry width="100" height="100" relative="1" as="geometry">
            <mxPoint x="346" y="479" as="sourcePoint" />
            <mxPoint x="336" y="479" as="targetPoint" />
          </mxGeometry>
        </mxCell>
        <mxCell id="NUtVhF5h9HZDoagzUMLB-189" value="" style="shape=mxgraph.arrows2.wedgeArrow;html=1;bendable=0;startWidth=5;fillColor=strokeColor;defaultFillColor=invert;defaultGradientColor=invert;rounded=0;endSize=8;arcSize=100;" parent="1" edge="1">
          <mxGeometry width="100" height="100" relative="1" as="geometry">
            <mxPoint x="205" y="505" as="sourcePoint" />
            <mxPoint x="195" y="505" as="targetPoint" />
          </mxGeometry>
        </mxCell>
        <mxCell id="NUtVhF5h9HZDoagzUMLB-190" value="[1..1]" style="text;html=1;align=center;verticalAlign=middle;whiteSpace=wrap;rounded=0;" parent="1" vertex="1">
          <mxGeometry x="461" y="484" width="45" height="30" as="geometry" />
        </mxCell>
        <mxCell id="NUtVhF5h9HZDoagzUMLB-191" value="[1..1]" style="text;html=1;align=center;verticalAlign=middle;whiteSpace=wrap;rounded=0;" parent="1" vertex="1">
          <mxGeometry x="461.5" y="514" width="45" height="30" as="geometry" />
        </mxCell>
        <mxCell id="NUtVhF5h9HZDoagzUMLB-192" value="[1..1]" style="text;html=1;align=center;verticalAlign=middle;whiteSpace=wrap;rounded=0;" parent="1" vertex="1">
          <mxGeometry x="64" y="455" width="45" height="30" as="geometry" />
        </mxCell>
        <mxCell id="NUtVhF5h9HZDoagzUMLB-193" value="[1..1]" style="text;html=1;align=center;verticalAlign=middle;whiteSpace=wrap;rounded=0;" parent="1" vertex="1">
          <mxGeometry x="281" y="455" width="45" height="30" as="geometry" />
        </mxCell>
        <mxCell id="NUtVhF5h9HZDoagzUMLB-194" value="[1..1]" style="text;html=1;align=center;verticalAlign=middle;whiteSpace=wrap;rounded=0;" parent="1" vertex="1">
          <mxGeometry x="64" y="324" width="45" height="30" as="geometry" />
        </mxCell>
        <mxCell id="NUtVhF5h9HZDoagzUMLB-195" value="[1..1]" style="text;html=1;align=center;verticalAlign=middle;whiteSpace=wrap;rounded=0;" parent="1" vertex="1">
          <mxGeometry x="89" y="220" width="45" height="30" as="geometry" />
        </mxCell>
        <mxCell id="NUtVhF5h9HZDoagzUMLB-196" value="[1..1]" style="text;html=1;align=center;verticalAlign=middle;whiteSpace=wrap;rounded=0;" parent="1" vertex="1">
          <mxGeometry x="294" y="197" width="45" height="30" as="geometry" />
        </mxCell>
        <mxCell id="NUtVhF5h9HZDoagzUMLB-197" value="[1..1]" style="text;html=1;align=center;verticalAlign=middle;whiteSpace=wrap;rounded=0;" parent="1" vertex="1">
          <mxGeometry x="321" y="324" width="45" height="30" as="geometry" />
        </mxCell>
        <mxCell id="NUtVhF5h9HZDoagzUMLB-198" value="" style="shape=mxgraph.arrows2.wedgeArrow;html=1;bendable=0;startWidth=5;fillColor=strokeColor;defaultFillColor=invert;defaultGradientColor=invert;rounded=0;endSize=8;arcSize=100;" parent="1" edge="1">
          <mxGeometry width="100" height="100" relative="1" as="geometry">
            <mxPoint x="420" y="166" as="sourcePoint" />
            <mxPoint x="420" y="176" as="targetPoint" />
          </mxGeometry>
        </mxCell>
        <mxCell id="NUtVhF5h9HZDoagzUMLB-199" value="ArtsFriendsCircle" style="swimlane;fontStyle=0;align=center;verticalAlign=top;childLayout=stackLayout;horizontal=1;startSize=26;horizontalStack=0;resizeParent=1;resizeLast=0;collapsible=1;marginBottom=0;rounded=0;shadow=0;strokeWidth=1;" parent="1" vertex="1">
          <mxGeometry x="90" y="878" width="160" height="182" as="geometry">
            <mxRectangle x="130" y="380" width="160" height="26" as="alternateBounds" />
          </mxGeometry>
        </mxCell>
        <mxCell id="NUtVhF5h9HZDoagzUMLB-200" value="afc_ID {PK}" style="text;align=left;verticalAlign=top;spacingLeft=4;spacingRight=4;overflow=hidden;rotatable=0;points=[[0,0.5],[1,0.5]];portConstraint=eastwest;" parent="NUtVhF5h9HZDoagzUMLB-199" vertex="1">
          <mxGeometry y="26" width="160" height="26" as="geometry" />
        </mxCell>
        <mxCell id="NUtVhF5h9HZDoagzUMLB-201" value="afc_name" style="text;align=left;verticalAlign=top;spacingLeft=4;spacingRight=4;overflow=hidden;rotatable=0;points=[[0,0.5],[1,0.5]];portConstraint=eastwest;" parent="NUtVhF5h9HZDoagzUMLB-199" vertex="1">
          <mxGeometry y="52" width="160" height="26" as="geometry" />
        </mxCell>
        <mxCell id="NUtVhF5h9HZDoagzUMLB-202" value="description" style="text;align=left;verticalAlign=top;spacingLeft=4;spacingRight=4;overflow=hidden;rotatable=0;points=[[0,0.5],[1,0.5]];portConstraint=eastwest;" parent="NUtVhF5h9HZDoagzUMLB-199" vertex="1">
          <mxGeometry y="78" width="160" height="26" as="geometry" />
        </mxCell>
        <mxCell id="NUtVhF5h9HZDoagzUMLB-203" value="address" style="text;align=left;verticalAlign=top;spacingLeft=4;spacingRight=4;overflow=hidden;rotatable=0;points=[[0,0.5],[1,0.5]];portConstraint=eastwest;" parent="NUtVhF5h9HZDoagzUMLB-199" vertex="1">
          <mxGeometry y="104" width="160" height="26" as="geometry" />
        </mxCell>
        <mxCell id="NUtVhF5h9HZDoagzUMLB-204" value="phone" style="text;align=left;verticalAlign=top;spacingLeft=4;spacingRight=4;overflow=hidden;rotatable=0;points=[[0,0.5],[1,0.5]];portConstraint=eastwest;" parent="NUtVhF5h9HZDoagzUMLB-199" vertex="1">
          <mxGeometry y="130" width="160" height="26" as="geometry" />
        </mxCell>
        <mxCell id="NUtVhF5h9HZDoagzUMLB-205" value="currentcontactname" style="text;align=left;verticalAlign=top;spacingLeft=4;spacingRight=4;overflow=hidden;rotatable=0;points=[[0,0.5],[1,0.5]];portConstraint=eastwest;" parent="NUtVhF5h9HZDoagzUMLB-199" vertex="1">
          <mxGeometry y="156" width="160" height="26" as="geometry" />
        </mxCell>
        <mxCell id="NUtVhF5h9HZDoagzUMLB-212" value="" style="endArrow=none;html=1;rounded=0;exitX=1.004;exitY=0.002;exitDx=0;exitDy=0;entryX=0;entryY=0.5;entryDx=0;entryDy=0;exitPerimeter=0;" parent="1" source="NUtVhF5h9HZDoagzUMLB-200" target="NUtVhF5h9HZDoagzUMLB-211" edge="1">
          <mxGeometry width="50" height="50" relative="1" as="geometry">
            <mxPoint x="570" y="740" as="sourcePoint" />
            <mxPoint x="480" y="700" as="targetPoint" />
            <Array as="points">
              <mxPoint x="420" y="904" />
              <mxPoint x="420" y="800" />
              <mxPoint x="420" y="697" />
            </Array>
          </mxGeometry>
        </mxCell>
        <mxCell id="NUtVhF5h9HZDoagzUMLB-234" value="Borrow Art Object from&lt;br&gt;Arts Friends Circle" style="edgeLabel;html=1;align=right;verticalAlign=middle;resizable=0;points=[];" parent="NUtVhF5h9HZDoagzUMLB-212" vertex="1" connectable="0">
          <mxGeometry x="0.4711" y="-1" relative="1" as="geometry">
            <mxPoint x="-7" y="147" as="offset" />
          </mxGeometry>
        </mxCell>
        <mxCell id="NUtVhF5h9HZDoagzUMLB-216" value="[1..1]" style="text;html=1;align=center;verticalAlign=middle;whiteSpace=wrap;rounded=0;" parent="1" vertex="1">
          <mxGeometry x="460.5" y="673" width="45" height="30" as="geometry" />
        </mxCell>
        <mxCell id="NUtVhF5h9HZDoagzUMLB-219" value="" style="shape=mxgraph.arrows2.wedgeArrow;html=1;bendable=0;startWidth=5;fillColor=strokeColor;defaultFillColor=invert;defaultGradientColor=invert;rounded=0;endSize=8;arcSize=100;" parent="1" edge="1">
          <mxGeometry width="100" height="100" relative="1" as="geometry">
            <mxPoint x="421" y="634.96" as="sourcePoint" />
            <mxPoint x="431" y="634.76" as="targetPoint" />
          </mxGeometry>
        </mxCell>
        <mxCell id="NUtVhF5h9HZDoagzUMLB-220" value="[1..1]" style="text;html=1;align=center;verticalAlign=middle;whiteSpace=wrap;rounded=0;" parent="1" vertex="1">
          <mxGeometry x="244" y="900" width="45" height="30" as="geometry" />
        </mxCell>
        <mxCell id="NUtVhF5h9HZDoagzUMLB-226" value="" style="triangle;whiteSpace=wrap;html=1;rotation=-90;" parent="1" vertex="1">
          <mxGeometry x="585" y="706" width="30" height="40" as="geometry" />
        </mxCell>
        <mxCell id="NUtVhF5h9HZDoagzUMLB-228" value="BorrowFromAFC" style="swimlane;fontStyle=0;align=center;verticalAlign=top;childLayout=stackLayout;horizontal=1;startSize=26;horizontalStack=0;resizeParent=1;resizeLast=0;collapsible=1;marginBottom=0;rounded=0;shadow=0;strokeWidth=1;" parent="1" vertex="1">
          <mxGeometry x="301.5" y="940" width="160" height="130" as="geometry">
            <mxRectangle x="130" y="380" width="160" height="26" as="alternateBounds" />
          </mxGeometry>
        </mxCell>
        <mxCell id="NUtVhF5h9HZDoagzUMLB-229" value="artobject_ID {FK}" style="text;align=left;verticalAlign=top;spacingLeft=4;spacingRight=4;overflow=hidden;rotatable=0;points=[[0,0.5],[1,0.5]];portConstraint=eastwest;" parent="NUtVhF5h9HZDoagzUMLB-228" vertex="1">
          <mxGeometry y="26" width="160" height="26" as="geometry" />
        </mxCell>
        <mxCell id="NUtVhF5h9HZDoagzUMLB-230" value="afc_ID {FK}" style="text;align=left;verticalAlign=top;spacingLeft=4;spacingRight=4;overflow=hidden;rotatable=0;points=[[0,0.5],[1,0.5]];portConstraint=eastwest;" parent="NUtVhF5h9HZDoagzUMLB-228" vertex="1">
          <mxGeometry y="52" width="160" height="26" as="geometry" />
        </mxCell>
        <mxCell id="NUtVhF5h9HZDoagzUMLB-231" value="date_borrowed" style="text;align=left;verticalAlign=top;spacingLeft=4;spacingRight=4;overflow=hidden;rotatable=0;points=[[0,0.5],[1,0.5]];portConstraint=eastwest;" parent="NUtVhF5h9HZDoagzUMLB-228" vertex="1">
          <mxGeometry y="78" width="160" height="26" as="geometry" />
        </mxCell>
        <mxCell id="NUtVhF5h9HZDoagzUMLB-232" value="date_returned" style="text;align=left;verticalAlign=top;spacingLeft=4;spacingRight=4;overflow=hidden;rotatable=0;points=[[0,0.5],[1,0.5]];portConstraint=eastwest;" parent="NUtVhF5h9HZDoagzUMLB-228" vertex="1">
          <mxGeometry y="104" width="160" height="26" as="geometry" />
        </mxCell>
        <mxCell id="NUtVhF5h9HZDoagzUMLB-233" value="" style="endArrow=none;html=1;rounded=0;entryX=0.5;entryY=0;entryDx=0;entryDy=0;dashed=1;" parent="1" target="NUtVhF5h9HZDoagzUMLB-228" edge="1">
          <mxGeometry width="50" height="50" relative="1" as="geometry">
            <mxPoint x="381" y="905" as="sourcePoint" />
            <mxPoint x="405" y="762" as="targetPoint" />
          </mxGeometry>
        </mxCell>
        <mxCell id="NUtVhF5h9HZDoagzUMLB-237" value="" style="shape=mxgraph.arrows2.wedgeArrow;html=1;bendable=0;startWidth=5;fillColor=strokeColor;defaultFillColor=invert;defaultGradientColor=invert;rounded=0;endSize=8;arcSize=100;" parent="1" edge="1">
          <mxGeometry width="100" height="100" relative="1" as="geometry">
            <mxPoint x="316" y="893" as="sourcePoint" />
            <mxPoint x="306" y="893" as="targetPoint" />
          </mxGeometry>
        </mxCell>
        <mxCell id="rmuCQlvN4vRWirarq7IJ-1" value="" style="endArrow=none;html=1;rounded=0;" edge="1" parent="1">
          <mxGeometry width="50" height="50" relative="1" as="geometry">
            <mxPoint x="600" y="779" as="sourcePoint" />
            <mxPoint x="1250" y="779" as="targetPoint" />
          </mxGeometry>
        </mxCell>
        <mxCell id="rmuCQlvN4vRWirarq7IJ-12" value="" style="endArrow=none;html=1;rounded=0;entryX=0.5;entryY=0;entryDx=0;entryDy=0;exitX=0.5;exitY=1.026;exitDx=0;exitDy=0;exitPerimeter=0;" edge="1" parent="1" target="NUtVhF5h9HZDoagzUMLB-45">
          <mxGeometry width="50" height="50" relative="1" as="geometry">
            <mxPoint x="823" y="778.676" as="sourcePoint" />
            <mxPoint x="822.5" y="846" as="targetPoint" />
          </mxGeometry>
        </mxCell>
        <mxCell id="rmuCQlvN4vRWirarq7IJ-13" value="" style="endArrow=none;html=1;rounded=0;entryX=0.5;entryY=0;entryDx=0;entryDy=0;" edge="1" parent="1">
          <mxGeometry width="50" height="50" relative="1" as="geometry">
            <mxPoint x="1250" y="779" as="sourcePoint" />
            <mxPoint x="1250.5" y="799" as="targetPoint" />
          </mxGeometry>
        </mxCell>
        <mxCell id="rmuCQlvN4vRWirarq7IJ-14" value="" style="endArrow=none;html=1;rounded=0;entryX=0.5;entryY=0;entryDx=0;entryDy=0;" edge="1" parent="1">
          <mxGeometry width="50" height="50" relative="1" as="geometry">
            <mxPoint x="1037" y="779" as="sourcePoint" />
            <mxPoint x="1037" y="799" as="targetPoint" />
          </mxGeometry>
        </mxCell>
      </root>
    </mxGraphModel>
  </diagram>
</mxfile>
